<?xml version="1.0" encoding="UTF-8"?><svg xmlns="http://www.w3.org/2000/svg" width="30" height="30" viewBox="0 0 30 30"><path fill="white" d="M 14.308594 29.398438 C 13.742188 29.136719 13.671875 28.917969 13.671875 27.445312 C 13.671875 26.378906 13.699219 26.105469 13.832031 25.789062 C 14.050781 25.28125 14.453125 25.046875 15.109375 25.046875 C 15.992188 25.046875 16.171875 25.460938 16.179688 27.488281 L 16.183594 28.867188 L 15.847656 29.210938 C 15.539062 29.527344 15.472656 29.558594 15.082031 29.554688 C 14.84375 29.554688 14.496094 29.484375 14.308594 29.398438 Z M 14.308594 29.398438 "/><path fill="white" d="M 4.65625 25.332031 C 4.03125 24.621094 4.207031 24.027344 5.402344 22.808594 C 6.230469 21.964844 6.503906 21.8125 7.191406 21.816406 C 8.007812 21.816406 8.308594 22.265625 8.128906 23.210938 C 8.039062 23.695312 7.992188 23.769531 7.34375 24.433594 C 6.570312 25.222656 5.773438 25.726562 5.304688 25.726562 C 5.054688 25.726562 4.945312 25.660156 4.65625 25.332031 Z M 4.65625 25.332031 "/><path fill="white" d="M 23.757812 25.425781 C 23.171875 25.019531 22.035156 23.878906 21.835938 23.496094 C 21.734375 23.300781 21.671875 23.007812 21.671875 22.71875 C 21.671875 22.292969 21.695312 22.242188 21.964844 22.035156 C 22.207031 21.851562 22.347656 21.8125 22.777344 21.8125 C 23.0625 21.8125 23.402344 21.867188 23.527344 21.933594 C 23.785156 22.070312 25.046875 23.34375 25.527344 23.953125 C 25.953125 24.488281 25.945312 24.761719 25.507812 25.160156 C 24.789062 25.808594 24.398438 25.867188 23.757812 25.425781 Z M 23.757812 25.425781 "/><path fill="white" d="M 1.050781 16.222656 C 0.621094 16.042969 0.394531 15.605469 0.394531 14.941406 C 0.394531 14.472656 0.414062 14.421875 0.738281 14.105469 L 1.085938 13.769531 L 2.550781 13.773438 C 3.796875 13.777344 4.074219 13.804688 4.414062 13.945312 C 4.890625 14.140625 4.992188 14.328125 4.992188 15.015625 C 4.992188 15.703125 4.738281 16.046875 4.097656 16.234375 C 3.46875 16.417969 1.5 16.410156 1.050781 16.222656 Z M 1.050781 16.222656 "/><path fill="white" d="M 25.84375 16.210938 C 25.339844 15.964844 25.097656 15.621094 25.03125 15.058594 C 24.972656 14.570312 24.976562 14.558594 25.285156 14.242188 C 25.558594 13.960938 25.679688 13.90625 26.230469 13.8125 C 27.121094 13.660156 28.675781 13.761719 29.054688 13.996094 C 29.542969 14.296875 29.660156 14.550781 29.582031 15.121094 C 29.503906 15.691406 29.300781 15.964844 28.777344 16.203125 C 28.304688 16.425781 26.289062 16.429688 25.84375 16.210938 Z M 25.84375 16.210938 "/><path fill="white" d="M 22.210938 8.226562 C 21.910156 8.121094 21.835938 8.046875 21.738281 7.742188 C 21.652344 7.480469 21.640625 7.261719 21.695312 6.917969 C 21.765625 6.488281 21.824219 6.398438 22.421875 5.785156 C 23.238281 4.957031 24.21875 4.195312 24.472656 4.195312 C 24.714844 4.195312 25.664062 4.933594 25.765625 5.199219 C 25.808594 5.308594 25.84375 5.46875 25.84375 5.550781 C 25.84375 5.757812 24.984375 6.820312 24.214844 7.570312 C 23.402344 8.359375 22.976562 8.5 22.210938 8.226562 Z M 22.210938 8.226562 "/><path fill="white" d="M 14.476562 4.863281 C 14.257812 4.753906 14.035156 4.539062 13.878906 4.292969 C 13.632812 3.902344 13.628906 3.886719 13.632812 2.664062 C 13.636719 1.210938 13.71875 0.988281 14.371094 0.65625 C 15.289062 0.1875 15.929688 0.507812 16.140625 1.539062 C 16.273438 2.199219 16.191406 3.90625 16.003906 4.355469 C 15.710938 5.0625 15.203125 5.230469 14.476562 4.863281 Z M 14.476562 4.863281 "/><path fill="white" d="M 6.480469 8.199219 C 6.0625 8.007812 4.941406 6.863281 4.578125 6.257812 C 4.238281 5.691406 4.238281 5.386719 4.574219 4.859375 C 5.058594 4.109375 5.355469 4.03125 5.9375 4.492188 C 6.140625 4.65625 6.347656 4.789062 6.398438 4.789062 C 6.445312 4.792969 6.835938 5.144531 7.265625 5.578125 L 8.050781 6.367188 L 8.105469 7.070312 L 8.164062 7.777344 L 7.878906 8.070312 C 7.636719 8.324219 7.542969 8.363281 7.207031 8.359375 C 6.996094 8.355469 6.667969 8.285156 6.480469 8.199219 Z M 6.480469 8.199219 "/><path fill="white" d="M 13.078125 22.289062 C 12.820312 22.230469 12.148438 21.933594 11.582031 21.636719 C 10.621094 21.125 10.503906 21.03125 9.6875 20.152344 C 8.949219 19.359375 8.730469 19.054688 8.257812 18.160156 C 7.734375 17.164062 7.695312 17.054688 7.613281 16.289062 C 7.566406 15.839844 7.550781 14.972656 7.578125 14.367188 L 7.628906 13.257812 L 8.238281 12.011719 C 8.839844 10.78125 8.863281 10.746094 9.792969 9.824219 C 10.527344 9.097656 10.917969 8.785156 11.558594 8.417969 C 12.660156 7.789062 13.226562 7.6875 15.375 7.746094 C 17.144531 7.792969 17.574219 7.878906 18.167969 8.308594 C 18.386719 8.46875 18.796875 8.71875 19.078125 8.859375 C 19.769531 9.210938 20.800781 10.273438 21.164062 11.003906 C 21.3125 11.308594 21.527344 11.683594 21.644531 11.832031 C 21.992188 12.300781 22.09375 12.660156 22.226562 13.898438 C 22.335938 14.941406 22.335938 15.226562 22.230469 16.175781 C 22.09375 17.378906 21.953125 17.871094 21.625 18.257812 C 21.503906 18.402344 21.257812 18.8125 21.078125 19.167969 C 20.808594 19.707031 20.628906 19.921875 20 20.476562 C 19.03125 21.328125 17.472656 22.183594 16.652344 22.316406 C 15.902344 22.4375 13.65625 22.417969 13.078125 22.289062 Z M 16.265625 19.753906 C 16.640625 19.679688 16.984375 19.511719 17.636719 19.078125 C 18.117188 18.761719 18.558594 18.414062 18.613281 18.308594 C 18.671875 18.199219 18.859375 17.953125 19.035156 17.761719 C 19.410156 17.347656 19.585938 16.847656 19.714844 15.796875 C 19.789062 15.214844 19.789062 14.84375 19.71875 14.347656 C 19.515625 12.949219 19.46875 12.832031 18.886719 12.148438 C 18.265625 11.421875 17.542969 10.808594 17.007812 10.5625 C 16.4375 10.304688 15.09375 10.195312 14.011719 10.320312 C 12.992188 10.441406 12.644531 10.5625 12.324219 10.902344 C 12.199219 11.035156 11.917969 11.25 11.695312 11.378906 C 11.476562 11.507812 11.273438 11.695312 11.242188 11.796875 C 11.210938 11.898438 10.992188 12.28125 10.753906 12.648438 C 10.203125 13.5 10.082031 14.0625 10.15625 15.429688 C 10.214844 16.539062 10.320312 16.847656 11.007812 17.875 C 11.359375 18.40625 11.539062 18.574219 12.296875 19.085938 C 13.160156 19.664062 13.222656 19.691406 14.140625 19.800781 C 14.734375 19.871094 15.804688 19.847656 16.265625 19.753906 Z M 16.265625 19.753906 "/></svg>
