<?xml version="1.0" encoding="UTF-8"?><svg xmlns="http://www.w3.org/2000/svg" width="30" height="30" viewBox="0 0 30 30"><path fill="white" d="M 13.09375 29.632812 C 12.886719 29.566406 12.636719 29.4375 12.539062 29.347656 C 12.441406 29.257812 12.078125 29.058594 11.726562 28.90625 C 11.265625 28.703125 10.875 28.4375 10.320312 27.945312 C 9.632812 27.335938 9.507812 27.175781 9.082031 26.367188 C 8.824219 25.871094 8.550781 25.371094 8.472656 25.253906 C 8.269531 24.949219 8.117188 23.429688 8.183594 22.40625 C 8.253906 21.335938 8.398438 20.78125 8.738281 20.289062 C 8.886719 20.074219 9.117188 19.65625 9.25 19.363281 C 9.386719 19.066406 9.652344 18.679688 9.851562 18.488281 C 10.515625 17.855469 10.472656 18.347656 10.53125 10.789062 L 10.589844 4.019531 L 10.984375 2.972656 C 11.339844 2.03125 11.421875 1.886719 11.804688 1.542969 C 13.171875 0.3125 13.367188 0.234375 15.078125 0.234375 C 16.449219 0.234375 16.679688 0.316406 17.714844 1.160156 C 18.511719 1.8125 18.59375 1.929688 19.03125 3.078125 L 19.390625 4.007812 L 19.441406 10.78125 C 19.5 18.308594 19.453125 17.757812 20.109375 18.445312 C 20.308594 18.65625 20.742188 19.328125 21.066406 19.9375 C 21.660156 21.042969 21.660156 21.042969 21.765625 22.046875 C 21.855469 22.859375 21.855469 23.234375 21.765625 23.992188 C 21.664062 24.894531 21.636719 24.96875 21.109375 25.964844 C 20.648438 26.835938 20.445312 27.117188 19.824219 27.75 C 19.152344 28.429688 18.976562 28.554688 17.863281 29.132812 L 16.636719 29.765625 L 15.054688 29.757812 C 13.960938 29.75 13.351562 29.710938 13.09375 29.632812 Z M 16.378906 27.085938 C 16.949219 26.902344 17.945312 26.109375 18.378906 25.5 C 19.125 24.453125 19.15625 24.355469 19.136719 22.976562 C 19.125 22.011719 19.089844 21.683594 18.964844 21.402344 C 18.773438 20.960938 18.199219 20.21875 17.667969 19.738281 C 17.367188 19.460938 17.214844 19.222656 17.015625 18.71875 L 16.757812 18.0625 L 16.722656 11.042969 L 16.683594 4.019531 L 16.398438 3.5 C 16.058594 2.878906 15.871094 2.785156 14.953125 2.789062 C 14.136719 2.789062 13.890625 2.933594 13.480469 3.664062 L 13.171875 4.21875 L 13.164062 8.546875 C 13.15625 10.925781 13.125 14.136719 13.09375 15.679688 C 13.039062 18.34375 13.027344 18.515625 12.839844 18.984375 C 12.695312 19.351562 12.558594 19.542969 12.316406 19.710938 C 12.125 19.839844 11.761719 20.269531 11.457031 20.726562 C 10.972656 21.457031 10.921875 21.578125 10.824219 22.234375 C 10.738281 22.808594 10.742188 23.101562 10.832031 23.746094 C 10.9375 24.519531 10.960938 24.578125 11.476562 25.320312 C 11.925781 25.972656 12.117188 26.171875 12.726562 26.589844 C 13.273438 26.964844 13.5625 27.105469 13.925781 27.171875 C 14.554688 27.28125 15.929688 27.234375 16.378906 27.085938 Z M 16.378906 27.085938 "/></svg>
