<?xml version="1.0" encoding="UTF-8"?><svg xmlns="http://www.w3.org/2000/svg" width="30" height="30" viewBox="0 0 30 30"><path fill="white" d="M 14.441406 19 C 12.878906 14.0625 11.578125 10.023438 11.554688 10.023438 C 11.53125 10.023438 10.886719 11.585938 10.125 13.496094 L 8.738281 16.96875 L 1.082031 16.96875 L 1.082031 15.078125 L 3.902344 15.054688 L 6.71875 15.03125 L 8.390625 9.003906 C 9.484375 5.0625 10.105469 2.980469 10.179688 2.980469 C 10.390625 2.980469 12.320312 3.625 12.421875 3.730469 C 12.496094 3.808594 17.5 17.808594 18.664062 21.203125 C 18.761719 21.484375 18.820312 21.5625 18.875 21.46875 C 18.914062 21.398438 19.433594 20 20.027344 18.363281 C 20.621094 16.730469 21.136719 15.320312 21.171875 15.234375 C 21.226562 15.085938 21.5 15.074219 25.109375 15.074219 L 28.984375 15.074219 L 28.957031 15.953125 L 28.929688 16.835938 L 26.3125 17.136719 C 24.875 17.304688 23.671875 17.46875 23.640625 17.5 C 23.609375 17.53125 22.84375 19.78125 21.9375 22.5 C 20.503906 26.808594 20.269531 27.449219 20.101562 27.488281 C 19.429688 27.644531 17.636719 27.984375 17.476562 27.980469 C 17.304688 27.980469 17.03125 27.171875 14.441406 19 Z M 14.441406 19 "/></svg>
