<?xml version="1.0" encoding="UTF-8"?><svg xmlns="http://www.w3.org/2000/svg" width="30" height="30" viewBox="0 0 30 30"><path fill="white" d="M 1.609375 10.046875 C 1.085938 9.929688 0.621094 9.65625 0.269531 9.253906 C 0.046875 8.996094 0.0117188 8.867188 0.0117188 8.289062 L 0.0117188 7.625 L 0.699219 6.886719 C 1.289062 6.257812 1.496094 6.113281 2.121094 5.890625 C 2.527344 5.746094 3.058594 5.457031 3.300781 5.242188 C 3.546875 5.03125 4.042969 4.742188 4.40625 4.597656 C 4.769531 4.453125 5.421875 4.113281 5.851562 3.835938 C 6.28125 3.558594 6.898438 3.242188 7.222656 3.132812 C 7.546875 3.019531 8.085938 2.710938 8.425781 2.441406 C 8.769531 2.167969 9.269531 1.890625 9.558594 1.808594 C 9.886719 1.71875 10.339844 1.453125 10.773438 1.09375 C 11.335938 0.628906 11.648438 0.46875 12.425781 0.234375 C 13.527344 -0.0976562 13.945312 -0.0820312 15.078125 0.324219 C 15.808594 0.589844 15.832031 0.613281 16.558594 1.613281 C 17.289062 2.621094 17.292969 2.636719 17.433594 3.582031 C 17.527344 4.253906 17.550781 4.832031 17.5 5.523438 C 17.390625 7.085938 17.292969 7.347656 16.425781 8.40625 C 15.710938 9.277344 15.597656 9.367188 14.808594 9.707031 L 13.957031 10.074219 L 8 10.109375 C 4.722656 10.125 1.847656 10.097656 1.609375 10.046875 Z M 14.003906 6.183594 C 14.589844 5.832031 14.820312 5.269531 14.65625 4.59375 C 14.496094 3.949219 14.1875 3.667969 13.632812 3.667969 C 13.09375 3.667969 12.140625 4.050781 11.5 4.519531 C 11.238281 4.710938 10.664062 5.03125 10.222656 5.234375 C 9.433594 5.59375 9.417969 5.609375 9.390625 6.015625 C 9.351562 6.5625 9.359375 6.5625 11.6875 6.492188 C 13.390625 6.441406 13.621094 6.414062 14.003906 6.183594 Z M 14.003906 6.183594 "/><path fill="white" d="M 1.429688 16.652344 C 0.765625 16.558594 0.339844 16.277344 0.136719 15.804688 C -0.226562 14.953125 0.152344 13.914062 0.988281 13.464844 L 1.476562 13.203125 L 13.648438 13.128906 C 25.710938 13.058594 25.828125 13.054688 26.207031 12.816406 C 26.695312 12.511719 26.957031 11.824219 26.957031 10.84375 C 26.957031 9.9375 26.753906 9.363281 26.25 8.84375 C 25.871094 8.457031 25.78125 8.417969 25.265625 8.417969 C 24.765625 8.417969 24.625 8.472656 24.101562 8.882812 C 23.589844 9.28125 23.433594 9.34375 22.988281 9.339844 C 22.046875 9.328125 21.390625 8.824219 21.382812 8.101562 C 21.378906 7.960938 21.511719 7.511719 21.675781 7.105469 C 21.96875 6.375 21.980469 6.363281 23.03125 5.664062 C 24.816406 4.480469 25.515625 4.457031 27.207031 5.546875 C 28.085938 6.109375 28.355469 6.351562 28.796875 6.96875 C 29.445312 7.875 29.632812 8.382812 29.839844 9.835938 L 30 10.964844 L 29.753906 12.25 C 29.617188 12.960938 29.460938 13.652344 29.402344 13.789062 C 29.347656 13.925781 28.957031 14.46875 28.535156 14.992188 C 27.695312 16.039062 27.578125 16.109375 26.035156 16.523438 C 25.183594 16.753906 24.898438 16.761719 13.554688 16.742188 C 7.171875 16.734375 1.714844 16.691406 1.429688 16.652344 Z M 1.429688 16.652344 "/><path fill="white" d="M 16.679688 29.949219 C 16.585938 29.90625 16.40625 29.863281 16.28125 29.859375 C 16.152344 29.855469 15.640625 29.574219 15.144531 29.230469 C 14.433594 28.742188 14.058594 28.5625 13.390625 28.402344 C 12.867188 28.273438 12.261719 28.027344 11.816406 27.753906 C 11.328125 27.457031 10.804688 27.25 10.207031 27.117188 C 9.597656 26.980469 9.089844 26.777344 8.566406 26.457031 C 7.992188 26.105469 7.535156 25.933594 6.644531 25.730469 C 5.800781 25.539062 5.253906 25.335938 4.660156 25 C 4.1875 24.730469 3.5 24.453125 3.035156 24.34375 C 2.152344 24.132812 0.628906 23.230469 0.230469 22.675781 C -0.046875 22.289062 -0.0507812 21.675781 0.21875 20.988281 C 0.386719 20.5625 0.519531 20.410156 0.910156 20.191406 L 1.394531 19.921875 L 9.050781 19.835938 C 14.589844 19.773438 16.914062 19.785156 17.457031 19.878906 C 18.214844 20.011719 19.921875 20.78125 20.28125 21.152344 C 20.65625 21.542969 21.488281 22.921875 21.621094 23.378906 C 21.808594 24.039062 21.800781 26.035156 21.605469 26.847656 C 21.484375 27.339844 21.296875 27.6875 20.707031 28.472656 C 19.78125 29.71875 19.386719 29.929688 17.859375 29.988281 C 17.300781 30.011719 16.769531 29.996094 16.679688 29.949219 Z M 18.660156 26.050781 C 18.871094 25.808594 18.921875 25.652344 18.921875 25.210938 C 18.921875 24.539062 18.695312 24.160156 18.0625 23.765625 C 17.609375 23.484375 17.566406 23.480469 15.199219 23.480469 C 12.433594 23.480469 12.207031 23.511719 12.207031 23.890625 C 12.207031 24.3125 12.765625 24.644531 13.992188 24.949219 C 14.839844 25.160156 15.214844 25.316406 15.636719 25.632812 C 16.5 26.285156 17.070312 26.492188 17.785156 26.417969 C 18.269531 26.363281 18.457031 26.289062 18.660156 26.050781 Z M 18.660156 26.050781 "/></svg>
