<?xml version="1.0" encoding="UTF-8"?><svg xmlns="http://www.w3.org/2000/svg" width="360" height="360" viewBox="0 0 360 360"><rect fill="#a3a3a3" width="360" height="360"/><circle fill="white" cx="180.01" cy="118.08" r="56.13"/><path fill="white" d="M255.6 214.64q12.08 7.28 21.5 17.77 12.05 13.42 15.49 30.61 1.11 5.52 1.12 17.04 0 8.68.22 17.11a.81.81 89.3 0 1-.81.83H66.86a.61.61-89.3 0 1-.61-.61v-16.92q0-11.58.96-16.87 1.88-10.36 7.1-19.04 12.53-20.81 34.96-32.82 27.43-14.69 59.48-16.74 16.93-1.09 31.84.72 29.57 3.58 55.01 18.92z"/></svg>